<?xml version="1.0" encoding="UTF-8" standalone="no"?>
<!DOCTYPE svg PUBLIC "-//W3C//DTD SVG 1.1//EN"
 "http://www.w3.org/Graphics/SVG/1.1/DTD/svg11.dtd">
<!-- Generated by graphviz version 2.38.0 (20140413.2041)
 -->
<!-- Title: Unicode_CharacterEncodingModel::CharacterEncodingForm&lt; Derived, Min, Max, CodeUnitWidth &gt; Pages: 1 -->
<svg width="411pt" height="132pt"
 viewBox="0.00 0.00 411.00 132.00" xmlns="http://www.w3.org/2000/svg" xmlns:xlink="http://www.w3.org/1999/xlink">
<g id="graph0" class="graph" transform="scale(1 1) rotate(0) translate(4 128)">
<title>Unicode_CharacterEncodingModel::CharacterEncodingForm&lt; Derived, Min, Max, CodeUnitWidth &gt;</title>
<polygon fill="white" stroke="none" points="-4,4 -4,-128 407,-128 407,4 -4,4"/>
<!-- Node1 -->
<g id="node1" class="node"><title>Node1</title>
<polygon fill="#bfbfbf" stroke="black" points="0,-41 0,-82 200,-82 200,-41 0,-41"/>
<text text-anchor="start" x="8" y="-70" font-family="Helvetica,sans-Serif" font-size="10.00">Unicode_CharacterEncoding</text>
<text text-anchor="start" x="8" y="-59" font-family="Helvetica,sans-Serif" font-size="10.00">Model::CharacterEncodingForm</text>
<text text-anchor="middle" x="100" y="-48" font-family="Helvetica,sans-Serif" font-size="10.00">&lt; Derived, Min, Max, CodeUnitWidth &gt;</text>
</g>
<!-- Node2 -->
<g id="node2" class="node"><title>Node2</title>
<g id="a_node2"><a xlink:href="classUnicode__CharacterEncodingModel_1_1CharacterEncodingForm__FixedWidth.html" target="_top" xlink:title="Base class for fixed width character encoding forms. ">
<polygon fill="white" stroke="black" points="236,-71.5 236,-123.5 403,-123.5 403,-71.5 236,-71.5"/>
<text text-anchor="start" x="244" y="-111.5" font-family="Helvetica,sans-Serif" font-size="10.00">Unicode_CharacterEncoding</text>
<text text-anchor="start" x="244" y="-100.5" font-family="Helvetica,sans-Serif" font-size="10.00">Model::CharacterEncodingForm</text>
<text text-anchor="start" x="244" y="-89.5" font-family="Helvetica,sans-Serif" font-size="10.00">_FixedWidth&lt; Derived, Min,</text>
<text text-anchor="middle" x="319.5" y="-78.5" font-family="Helvetica,sans-Serif" font-size="10.00"> Max, CodeUnitWidth &gt;</text>
</a>
</g>
</g>
<!-- Node1&#45;&gt;Node2 -->
<g id="edge1" class="edge"><title>Node1&#45;&gt;Node2</title>
<path fill="none" stroke="midnightblue" d="M210.247,-79.5822C218.812,-80.9999 227.373,-82.4169 235.718,-83.7981"/>
<polygon fill="midnightblue" stroke="midnightblue" points="210.64,-76.0998 200.203,-77.9198 209.497,-83.0058 210.64,-76.0998"/>
</g>
<!-- Node3 -->
<g id="node3" class="node"><title>Node3</title>
<g id="a_node3"><a xlink:href="classUnicode__CharacterEncodingModel_1_1CharacterEncodingForm__VariableWidth.html" target="_top" xlink:title="Base class for variable width character encoding forms. ">
<polygon fill="white" stroke="black" points="236,-0.5 236,-52.5 403,-52.5 403,-0.5 236,-0.5"/>
<text text-anchor="start" x="244" y="-40.5" font-family="Helvetica,sans-Serif" font-size="10.00">Unicode_CharacterEncoding</text>
<text text-anchor="start" x="244" y="-29.5" font-family="Helvetica,sans-Serif" font-size="10.00">Model::CharacterEncodingForm</text>
<text text-anchor="start" x="244" y="-18.5" font-family="Helvetica,sans-Serif" font-size="10.00">_VariableWidth&lt; Derived, Min,</text>
<text text-anchor="middle" x="319.5" y="-7.5" font-family="Helvetica,sans-Serif" font-size="10.00"> Max, CodeUnitWidth &gt;</text>
</a>
</g>
</g>
<!-- Node1&#45;&gt;Node3 -->
<g id="edge2" class="edge"><title>Node1&#45;&gt;Node3</title>
<path fill="none" stroke="midnightblue" d="M210.247,-43.9201C218.812,-42.5417 227.373,-41.1641 235.718,-39.8213"/>
<polygon fill="midnightblue" stroke="midnightblue" points="209.52,-40.4919 200.203,-45.5363 210.632,-47.403 209.52,-40.4919"/>
</g>
</g>
</svg>
