<?xml version="1.0" encoding="UTF-8" standalone="no"?>
<!DOCTYPE svg PUBLIC "-//W3C//DTD SVG 1.1//EN"
 "http://www.w3.org/Graphics/SVG/1.1/DTD/svg11.dtd">
<!-- Generated by graphviz version 2.38.0 (20140413.2041)
 -->
<!-- Title: Unicode_CharacterEncodingModel::CharacterEncodingScheme_Compound_ByteOrderMark&lt; CEF, SCES_BE, SCES_LE &gt; Pages: 1 -->
<svg width="643pt" height="61pt"
 viewBox="0.00 0.00 643.00 61.00" xmlns="http://www.w3.org/2000/svg" xmlns:xlink="http://www.w3.org/1999/xlink">
<g id="graph0" class="graph" transform="scale(1 1) rotate(0) translate(4 57)">
<title>Unicode_CharacterEncodingModel::CharacterEncodingScheme_Compound_ByteOrderMark&lt; CEF, SCES_BE, SCES_LE &gt;</title>
<polygon fill="white" stroke="none" points="-4,4 -4,-57 639,-57 639,4 -4,4"/>
<!-- Node1 -->
<g id="node1" class="node"><title>Node1</title>
<polygon fill="#bfbfbf" stroke="black" points="451,-0.5 451,-52.5 635,-52.5 635,-0.5 451,-0.5"/>
<text text-anchor="start" x="459" y="-40.5" font-family="Helvetica,sans-Serif" font-size="10.00">Unicode_CharacterEncoding</text>
<text text-anchor="start" x="459" y="-29.5" font-family="Helvetica,sans-Serif" font-size="10.00">Model::CharacterEncodingScheme</text>
<text text-anchor="start" x="459" y="-18.5" font-family="Helvetica,sans-Serif" font-size="10.00">_Compound_ByteOrderMark&lt; CEF,</text>
<text text-anchor="middle" x="543" y="-7.5" font-family="Helvetica,sans-Serif" font-size="10.00"> SCES_BE, SCES_LE &gt;</text>
</g>
<!-- Node2 -->
<g id="node2" class="node"><title>Node2</title>
<g id="a_node2"><a xlink:href="classUnicode__CharacterEncodingModel_1_1CharacterEncodingScheme__Compound.html" target="_top" xlink:title="Unicode_CharacterEncoding\lModel::CharacterEncodingScheme\l_Compound\&lt; CEF::code_unit_width \&gt;">
<polygon fill="white" stroke="black" points="218,-6 218,-47 415,-47 415,-6 218,-6"/>
<text text-anchor="start" x="226" y="-35" font-family="Helvetica,sans-Serif" font-size="10.00">Unicode_CharacterEncoding</text>
<text text-anchor="start" x="226" y="-24" font-family="Helvetica,sans-Serif" font-size="10.00">Model::CharacterEncodingScheme</text>
<text text-anchor="middle" x="316.5" y="-13" font-family="Helvetica,sans-Serif" font-size="10.00">_Compound&lt; CEF::code_unit_width &gt;</text>
</a>
</g>
</g>
<!-- Node2&#45;&gt;Node1 -->
<g id="edge1" class="edge"><title>Node2&#45;&gt;Node1</title>
<path fill="none" stroke="midnightblue" d="M425.325,-26.5C433.875,-26.5 442.46,-26.5 450.879,-26.5"/>
<polygon fill="midnightblue" stroke="midnightblue" points="425.316,-23.0001 415.316,-26.5 425.316,-30.0001 425.316,-23.0001"/>
</g>
<!-- Node3 -->
<g id="node3" class="node"><title>Node3</title>
<g id="a_node3"><a xlink:href="classUnicode__CharacterEncodingModel_1_1CharacterEncodingScheme.html" target="_top" xlink:title="Base class for character encoding schemes. ">
<polygon fill="white" stroke="black" points="0,-6 0,-47 182,-47 182,-6 0,-6"/>
<text text-anchor="start" x="8" y="-35" font-family="Helvetica,sans-Serif" font-size="10.00">Unicode_CharacterEncoding</text>
<text text-anchor="start" x="8" y="-24" font-family="Helvetica,sans-Serif" font-size="10.00">Model::CharacterEncodingScheme</text>
<text text-anchor="middle" x="91" y="-13" font-family="Helvetica,sans-Serif" font-size="10.00">&lt; CodeUnitWidth &gt;</text>
</a>
</g>
</g>
<!-- Node3&#45;&gt;Node2 -->
<g id="edge2" class="edge"><title>Node3&#45;&gt;Node2</title>
<path fill="none" stroke="midnightblue" d="M192.522,-26.5C200.98,-26.5 209.524,-26.5 217.959,-26.5"/>
<polygon fill="midnightblue" stroke="midnightblue" points="192.262,-23.0001 182.262,-26.5 192.262,-30.0001 192.262,-23.0001"/>
</g>
</g>
</svg>
