<?xml version="1.0" encoding="UTF-8" standalone="no"?>
<!DOCTYPE svg PUBLIC "-//W3C//DTD SVG 1.1//EN"
 "http://www.w3.org/Graphics/SVG/1.1/DTD/svg11.dtd">
<!-- Generated by graphviz version 2.38.0 (20140413.2041)
 -->
<!-- Title: Unicode_CharacterEncodingModel::CharacterEncodingScheme&lt; CodeUnitWidth &gt; Pages: 1 -->
<svg width="628pt" height="176pt"
 viewBox="0.00 0.00 628.00 175.50" xmlns="http://www.w3.org/2000/svg" xmlns:xlink="http://www.w3.org/1999/xlink">
<g id="graph0" class="graph" transform="scale(1 1) rotate(0) translate(4 171.5)">
<title>Unicode_CharacterEncodingModel::CharacterEncodingScheme&lt; CodeUnitWidth &gt;</title>
<polygon fill="white" stroke="none" points="-4,4 -4,-171.5 624,-171.5 624,4 -4,4"/>
<!-- Node1 -->
<g id="node1" class="node"><title>Node1</title>
<polygon fill="#bfbfbf" stroke="black" points="0,-60.5 0,-101.5 182,-101.5 182,-60.5 0,-60.5"/>
<text text-anchor="start" x="8" y="-89.5" font-family="Helvetica,sans-Serif" font-size="10.00">Unicode_CharacterEncoding</text>
<text text-anchor="start" x="8" y="-78.5" font-family="Helvetica,sans-Serif" font-size="10.00">Model::CharacterEncodingScheme</text>
<text text-anchor="middle" x="91" y="-67.5" font-family="Helvetica,sans-Serif" font-size="10.00">&lt; CodeUnitWidth &gt;</text>
</g>
<!-- Node2 -->
<g id="node2" class="node"><title>Node2</title>
<g id="a_node2"><a xlink:href="classUnicode__CharacterEncodingModel_1_1CharacterEncodingScheme__Compound.html" target="_top" xlink:title="CharacterEncodingScheme\l_Compound\&lt; CEF::code_unit\l_width \&gt;">
<polygon fill="white" stroke="black" points="231.5,-120.5 231.5,-161.5 386.5,-161.5 386.5,-120.5 231.5,-120.5"/>
<text text-anchor="start" x="239.5" y="-149.5" font-family="Helvetica,sans-Serif" font-size="10.00">CharacterEncodingScheme</text>
<text text-anchor="start" x="239.5" y="-138.5" font-family="Helvetica,sans-Serif" font-size="10.00">_Compound&lt; CEF::code_unit</text>
<text text-anchor="middle" x="309" y="-127.5" font-family="Helvetica,sans-Serif" font-size="10.00">_width &gt;</text>
</a>
</g>
</g>
<!-- Node1&#45;&gt;Node2 -->
<g id="edge1" class="edge"><title>Node1&#45;&gt;Node2</title>
<path fill="none" stroke="midnightblue" d="M175.683,-104.245C194.93,-109.592 215.264,-115.24 234.064,-120.462"/>
<polygon fill="midnightblue" stroke="midnightblue" points="176.605,-100.869 166.033,-101.565 174.731,-107.613 176.605,-100.869"/>
</g>
<!-- Node4 -->
<g id="node4" class="node"><title>Node4</title>
<g id="a_node4"><a xlink:href="classUnicode__CharacterEncodingModel_1_1CharacterEncodingScheme__Compound.html" target="_top" xlink:title="Base class for compound character encoding schemes. ">
<polygon fill="white" stroke="black" points="218,-60.5 218,-101.5 400,-101.5 400,-60.5 218,-60.5"/>
<text text-anchor="start" x="226" y="-89.5" font-family="Helvetica,sans-Serif" font-size="10.00">Unicode_CharacterEncoding</text>
<text text-anchor="start" x="226" y="-78.5" font-family="Helvetica,sans-Serif" font-size="10.00">Model::CharacterEncodingScheme</text>
<text text-anchor="middle" x="309" y="-67.5" font-family="Helvetica,sans-Serif" font-size="10.00">_Compound&lt; CodeUnitWidth &gt;</text>
</a>
</g>
</g>
<!-- Node1&#45;&gt;Node4 -->
<g id="edge3" class="edge"><title>Node1&#45;&gt;Node4</title>
<path fill="none" stroke="midnightblue" d="M192.059,-81C200.631,-81 209.27,-81 217.759,-81"/>
<polygon fill="midnightblue" stroke="midnightblue" points="192.039,-77.5001 182.039,-81 192.039,-84.5001 192.039,-77.5001"/>
</g>
<!-- Node5 -->
<g id="node5" class="node"><title>Node5</title>
<g id="a_node5"><a xlink:href="classUnicode__CharacterEncodingModel_1_1CharacterEncodingScheme__Simple.html" target="_top" xlink:title="Base class for simple character encoding schemes. ">
<polygon fill="white" stroke="black" points="218,-0.5 218,-41.5 400,-41.5 400,-0.5 218,-0.5"/>
<text text-anchor="start" x="226" y="-29.5" font-family="Helvetica,sans-Serif" font-size="10.00">Unicode_CharacterEncoding</text>
<text text-anchor="start" x="226" y="-18.5" font-family="Helvetica,sans-Serif" font-size="10.00">Model::CharacterEncodingScheme</text>
<text text-anchor="middle" x="309" y="-7.5" font-family="Helvetica,sans-Serif" font-size="10.00">_Simple&lt; CodeUnitWidth &gt;</text>
</a>
</g>
</g>
<!-- Node1&#45;&gt;Node5 -->
<g id="edge4" class="edge"><title>Node1&#45;&gt;Node5</title>
<path fill="none" stroke="midnightblue" d="M175.683,-57.7549C194.93,-52.4084 215.264,-46.76 234.064,-41.5378"/>
<polygon fill="midnightblue" stroke="midnightblue" points="174.731,-54.3865 166.033,-60.4353 176.605,-61.1311 174.731,-54.3865"/>
</g>
<!-- Node3 -->
<g id="node3" class="node"><title>Node3</title>
<g id="a_node3"><a xlink:href="classUnicode__CharacterEncodingModel_1_1CharacterEncodingScheme__Compound__ByteOrderMark.html" target="_top" xlink:title="Base class for compound character encoding schemes that employ a byte order mark as their switching m...">
<polygon fill="white" stroke="black" points="436,-115 436,-167 620,-167 620,-115 436,-115"/>
<text text-anchor="start" x="444" y="-155" font-family="Helvetica,sans-Serif" font-size="10.00">Unicode_CharacterEncoding</text>
<text text-anchor="start" x="444" y="-144" font-family="Helvetica,sans-Serif" font-size="10.00">Model::CharacterEncodingScheme</text>
<text text-anchor="start" x="444" y="-133" font-family="Helvetica,sans-Serif" font-size="10.00">_Compound_ByteOrderMark&lt; CEF,</text>
<text text-anchor="middle" x="528" y="-122" font-family="Helvetica,sans-Serif" font-size="10.00"> SCES_BE, SCES_LE &gt;</text>
</a>
</g>
</g>
<!-- Node2&#45;&gt;Node3 -->
<g id="edge2" class="edge"><title>Node2&#45;&gt;Node3</title>
<path fill="none" stroke="midnightblue" d="M396.743,-141C409.64,-141 422.964,-141 435.946,-141"/>
<polygon fill="midnightblue" stroke="midnightblue" points="396.506,-137.5 386.506,-141 396.506,-144.5 396.506,-137.5"/>
</g>
</g>
</svg>
