<?xml version="1.0" encoding="UTF-8" standalone="no"?>
<!DOCTYPE svg PUBLIC "-//W3C//DTD SVG 1.1//EN"
 "http://www.w3.org/Graphics/SVG/1.1/DTD/svg11.dtd">
<!-- Generated by graphviz version 2.38.0 (20140413.2041)
 -->
<!-- Title: Unicode_CharacterEncodingModel::CharacterEncodingForm_FixedWidth&lt; Derived, Min, Max, CodeUnitWidth, SequenceLength &gt; Pages: 1 -->
<svg width="458pt" height="61pt"
 viewBox="0.00 0.00 458.00 61.00" xmlns="http://www.w3.org/2000/svg" xmlns:xlink="http://www.w3.org/1999/xlink">
<g id="graph0" class="graph" transform="scale(1 1) rotate(0) translate(4 57)">
<title>Unicode_CharacterEncodingModel::CharacterEncodingForm_FixedWidth&lt; Derived, Min, Max, CodeUnitWidth, SequenceLength &gt;</title>
<polygon fill="white" stroke="none" points="-4,4 -4,-57 454,-57 454,4 -4,4"/>
<!-- Node1 -->
<g id="node1" class="node"><title>Node1</title>
<polygon fill="#bfbfbf" stroke="black" points="236,-0.5 236,-52.5 450,-52.5 450,-0.5 236,-0.5"/>
<text text-anchor="start" x="244" y="-40.5" font-family="Helvetica,sans-Serif" font-size="10.00">Unicode_CharacterEncoding</text>
<text text-anchor="start" x="244" y="-29.5" font-family="Helvetica,sans-Serif" font-size="10.00">Model::CharacterEncodingForm</text>
<text text-anchor="start" x="244" y="-18.5" font-family="Helvetica,sans-Serif" font-size="10.00">_FixedWidth&lt; Derived, Min,</text>
<text text-anchor="middle" x="343" y="-7.5" font-family="Helvetica,sans-Serif" font-size="10.00"> Max, CodeUnitWidth, SequenceLength &gt;</text>
</g>
<!-- Node2 -->
<g id="node2" class="node"><title>Node2</title>
<g id="a_node2"><a xlink:href="classUnicode__CharacterEncodingModel_1_1CharacterEncodingForm.html" target="_top" xlink:title="Base class for character encoding forms. ">
<polygon fill="white" stroke="black" points="0,-6 0,-47 200,-47 200,-6 0,-6"/>
<text text-anchor="start" x="8" y="-35" font-family="Helvetica,sans-Serif" font-size="10.00">Unicode_CharacterEncoding</text>
<text text-anchor="start" x="8" y="-24" font-family="Helvetica,sans-Serif" font-size="10.00">Model::CharacterEncodingForm</text>
<text text-anchor="middle" x="100" y="-13" font-family="Helvetica,sans-Serif" font-size="10.00">&lt; Derived, Min, Max, CodeUnitWidth &gt;</text>
</a>
</g>
</g>
<!-- Node2&#45;&gt;Node1 -->
<g id="edge1" class="edge"><title>Node2&#45;&gt;Node1</title>
<path fill="none" stroke="midnightblue" d="M210.092,-26.5C218.672,-26.5 227.329,-26.5 235.888,-26.5"/>
<polygon fill="midnightblue" stroke="midnightblue" points="210.067,-23.0001 200.067,-26.5 210.067,-30.0001 210.067,-23.0001"/>
</g>
</g>
</svg>
