<?xml version="1.0" encoding="UTF-8" standalone="no"?>
<!DOCTYPE svg PUBLIC "-//W3C//DTD SVG 1.1//EN"
 "http://www.w3.org/Graphics/SVG/1.1/DTD/svg11.dtd">
<!-- Generated by graphviz version 2.38.0 (20140413.2041)
 -->
<!-- Title: Unicode_CharacterEncodingModel::CharacterEncodingScheme_Simple&lt; Derived, CodeUnitWidth &gt; Pages: 1 -->
<svg width="199pt" height="128pt"
 viewBox="0.00 0.00 199.00 128.00" xmlns="http://www.w3.org/2000/svg" xmlns:xlink="http://www.w3.org/1999/xlink">
<g id="graph0" class="graph" transform="scale(1 1) rotate(0) translate(4 124)">
<title>Unicode_CharacterEncodingModel::CharacterEncodingScheme_Simple&lt; Derived, CodeUnitWidth &gt;</title>
<polygon fill="white" stroke="none" points="-4,4 -4,-124 195,-124 195,4 -4,4"/>
<!-- Node1 -->
<g id="node1" class="node"><title>Node1</title>
<polygon fill="#bfbfbf" stroke="black" points="0,-0.5 0,-41.5 191,-41.5 191,-0.5 0,-0.5"/>
<text text-anchor="start" x="8" y="-29.5" font-family="Helvetica,sans-Serif" font-size="10.00">Unicode_CharacterEncoding</text>
<text text-anchor="start" x="8" y="-18.5" font-family="Helvetica,sans-Serif" font-size="10.00">Model::CharacterEncodingScheme</text>
<text text-anchor="middle" x="95.5" y="-7.5" font-family="Helvetica,sans-Serif" font-size="10.00">_Simple&lt; Derived, CodeUnitWidth &gt;</text>
</g>
<!-- Node2 -->
<g id="node2" class="node"><title>Node2</title>
<g id="a_node2"><a xlink:href="classUnicode__CharacterEncodingModel_1_1CharacterEncodingScheme.html" target="_top" xlink:title="Base class for character encoding schemes. ">
<polygon fill="white" stroke="black" points="4.5,-78.5 4.5,-119.5 186.5,-119.5 186.5,-78.5 4.5,-78.5"/>
<text text-anchor="start" x="12.5" y="-107.5" font-family="Helvetica,sans-Serif" font-size="10.00">Unicode_CharacterEncoding</text>
<text text-anchor="start" x="12.5" y="-96.5" font-family="Helvetica,sans-Serif" font-size="10.00">Model::CharacterEncodingScheme</text>
<text text-anchor="middle" x="95.5" y="-85.5" font-family="Helvetica,sans-Serif" font-size="10.00">&lt; CodeUnitWidth &gt;</text>
</a>
</g>
</g>
<!-- Node2&#45;&gt;Node1 -->
<g id="edge1" class="edge"><title>Node2&#45;&gt;Node1</title>
<path fill="none" stroke="midnightblue" d="M95.5,-68.2965C95.5,-59.3009 95.5,-49.6532 95.5,-41.5056"/>
<polygon fill="midnightblue" stroke="midnightblue" points="92.0001,-68.4281 95.5,-78.4281 99.0001,-68.4281 92.0001,-68.4281"/>
</g>
</g>
</svg>
