<?xml version="1.0" encoding="UTF-8" standalone="no"?>
<!DOCTYPE svg PUBLIC "-//W3C//DTD SVG 1.1//EN"
 "http://www.w3.org/Graphics/SVG/1.1/DTD/svg11.dtd">
<!-- Generated by graphviz version 2.38.0 (20140413.2041)
 -->
<!-- Title: Graphical Class Hierarchy Pages: 1 -->
<svg width="326pt" height="132pt"
 viewBox="0.00 0.00 326.00 132.00" xmlns="http://www.w3.org/2000/svg" xmlns:xlink="http://www.w3.org/1999/xlink">
<g id="graph0" class="graph" transform="scale(1 1) rotate(0) translate(4 128)">
<title>Graphical Class Hierarchy</title>
<polygon fill="white" stroke="none" points="-4,4 -4,-128 322,-128 322,4 -4,4"/>
<!-- Node1 -->
<g id="node1" class="node"><title>Node1</title>
<polygon fill="white" stroke="#bfbfbf" points="0,-52 0,-71 63,-71 63,-52 0,-52"/>
<text text-anchor="middle" x="31.5" y="-59" font-family="Helvetica,sans-Serif" font-size="10.00">ill_formed</text>
</g>
<!-- Node2 -->
<g id="node2" class="node"><title>Node2</title>
<g id="a_node2"><a xlink:href="structUnicode__CharacterEncodingModel_1_1detail_1_1incomplete.html" target="_top" xlink:title="Thrown when a code unit sequence is incomplete. ">
<polygon fill="white" stroke="black" points="99,-71.5 99,-123.5 318,-123.5 318,-71.5 99,-71.5"/>
<text text-anchor="start" x="107" y="-111.5" font-family="Helvetica,sans-Serif" font-size="10.00">Unicode_CharacterEncoding</text>
<text text-anchor="start" x="107" y="-100.5" font-family="Helvetica,sans-Serif" font-size="10.00">Model::detail::incomplete</text>
<text text-anchor="start" x="107" y="-89.5" font-family="Helvetica,sans-Serif" font-size="10.00">&lt; sequence_length, MaxSequenceLength,</text>
<text text-anchor="middle" x="208.5" y="-78.5" font-family="Helvetica,sans-Serif" font-size="10.00"> ill_formed &gt;</text>
</a>
</g>
</g>
<!-- Node1&#45;&gt;Node2 -->
<g id="edge1" class="edge"><title>Node1&#45;&gt;Node2</title>
<path fill="none" stroke="midnightblue" d="M73.3773,-69.909C81.323,-71.5436 89.9932,-73.3272 98.9778,-75.1754"/>
<polygon fill="midnightblue" stroke="midnightblue" points="73.8838,-66.44 63.3837,-67.8532 72.4733,-73.2965 73.8838,-66.44"/>
</g>
<!-- Node3 -->
<g id="node3" class="node"><title>Node3</title>
<g id="a_node3"><a xlink:href="structUnicode__CharacterEncodingModel_1_1detail_1_1incomplete_3_01sequence__length_00_012_00_01ill__formed_01_4.html" target="_top" xlink:title="Specialization for the case in which the maximum sequence length is 2. ">
<polygon fill="white" stroke="black" points="132.5,-0.5 132.5,-52.5 284.5,-52.5 284.5,-0.5 132.5,-0.5"/>
<text text-anchor="start" x="140.5" y="-40.5" font-family="Helvetica,sans-Serif" font-size="10.00">Unicode_CharacterEncoding</text>
<text text-anchor="start" x="140.5" y="-29.5" font-family="Helvetica,sans-Serif" font-size="10.00">Model::detail::incomplete</text>
<text text-anchor="start" x="140.5" y="-18.5" font-family="Helvetica,sans-Serif" font-size="10.00">&lt; sequence_length, 2, ill</text>
<text text-anchor="middle" x="208.5" y="-7.5" font-family="Helvetica,sans-Serif" font-size="10.00">_formed &gt;</text>
</a>
</g>
</g>
<!-- Node1&#45;&gt;Node3 -->
<g id="edge2" class="edge"><title>Node1&#45;&gt;Node3</title>
<path fill="none" stroke="midnightblue" d="M73.2788,-53.3442C90.8389,-49.8322 111.951,-45.6097 132.178,-41.5643"/>
<polygon fill="midnightblue" stroke="midnightblue" points="72.503,-49.93 63.3837,-55.3233 73.8759,-56.7941 72.503,-49.93"/>
</g>
</g>
</svg>
