<?xml version="1.0" encoding="UTF-8" standalone="no"?>
<!DOCTYPE svg PUBLIC "-//W3C//DTD SVG 1.1//EN"
 "http://www.w3.org/Graphics/SVG/1.1/DTD/svg11.dtd">
<!-- Generated by graphviz version 2.38.0 (20140413.2041)
 -->
<!-- Title: Graphical Class Hierarchy Pages: 1 -->
<svg width="677pt" height="176pt"
 viewBox="0.00 0.00 677.00 175.50" xmlns="http://www.w3.org/2000/svg" xmlns:xlink="http://www.w3.org/1999/xlink">
<g id="graph0" class="graph" transform="scale(1 1) rotate(0) translate(4 171.5)">
<title>Graphical Class Hierarchy</title>
<polygon fill="white" stroke="none" points="-4,4 -4,-171.5 673,-171.5 673,4 -4,4"/>
<!-- Node1 -->
<g id="node1" class="node"><title>Node1</title>
<g id="a_node1"><a xlink:href="classUnicode__CharacterEncodingModel_1_1CharacterEncodingScheme.html" target="_top" xlink:title="Base class for character encoding schemes. ">
<polygon fill="white" stroke="black" points="0,-60.5 0,-101.5 182,-101.5 182,-60.5 0,-60.5"/>
<text text-anchor="start" x="8" y="-89.5" font-family="Helvetica,sans-Serif" font-size="10.00">Unicode_CharacterEncoding</text>
<text text-anchor="start" x="8" y="-78.5" font-family="Helvetica,sans-Serif" font-size="10.00">Model::CharacterEncodingScheme</text>
<text text-anchor="middle" x="91" y="-67.5" font-family="Helvetica,sans-Serif" font-size="10.00">&lt; CodeUnitWidth &gt;</text>
</a>
</g>
</g>
<!-- Node2 -->
<g id="node2" class="node"><title>Node2</title>
<g id="a_node2"><a xlink:href="classUnicode__CharacterEncodingModel_1_1CharacterEncodingScheme__Compound.html" target="_top" xlink:title="Unicode_CharacterEncoding\lModel::CharacterEncodingScheme\l_Compound\&lt; CEF::code_unit_width \&gt;">
<polygon fill="white" stroke="black" points="235,-120.5 235,-161.5 432,-161.5 432,-120.5 235,-120.5"/>
<text text-anchor="start" x="243" y="-149.5" font-family="Helvetica,sans-Serif" font-size="10.00">Unicode_CharacterEncoding</text>
<text text-anchor="start" x="243" y="-138.5" font-family="Helvetica,sans-Serif" font-size="10.00">Model::CharacterEncodingScheme</text>
<text text-anchor="middle" x="333.5" y="-127.5" font-family="Helvetica,sans-Serif" font-size="10.00">_Compound&lt; CEF::code_unit_width &gt;</text>
</a>
</g>
</g>
<!-- Node1&#45;&gt;Node2 -->
<g id="edge1" class="edge"><title>Node1&#45;&gt;Node2</title>
<path fill="none" stroke="midnightblue" d="M184.294,-104.026C205.984,-109.437 228.959,-115.168 250.178,-120.462"/>
<polygon fill="midnightblue" stroke="midnightblue" points="184.98,-100.589 174.43,-101.565 183.285,-107.381 184.98,-100.589"/>
</g>
<!-- Node4 -->
<g id="node4" class="node"><title>Node4</title>
<g id="a_node4"><a xlink:href="classUnicode__CharacterEncodingModel_1_1CharacterEncodingScheme__Compound.html" target="_top" xlink:title="Base class for compound character encoding schemes. ">
<polygon fill="white" stroke="black" points="218,-60.5 218,-101.5 449,-101.5 449,-60.5 218,-60.5"/>
<text text-anchor="start" x="226" y="-89.5" font-family="Helvetica,sans-Serif" font-size="10.00">Unicode_CharacterEncoding</text>
<text text-anchor="start" x="226" y="-78.5" font-family="Helvetica,sans-Serif" font-size="10.00">Model::CharacterEncodingScheme</text>
<text text-anchor="middle" x="333.5" y="-67.5" font-family="Helvetica,sans-Serif" font-size="10.00">_Compound&lt; CodeUnitWidth, SimpleCESs &gt;</text>
</a>
</g>
</g>
<!-- Node1&#45;&gt;Node4 -->
<g id="edge3" class="edge"><title>Node1&#45;&gt;Node4</title>
<path fill="none" stroke="midnightblue" d="M192.382,-81C200.761,-81 209.273,-81 217.749,-81"/>
<polygon fill="midnightblue" stroke="midnightblue" points="192.238,-77.5001 182.238,-81 192.238,-84.5001 192.238,-77.5001"/>
</g>
<!-- Node5 -->
<g id="node5" class="node"><title>Node5</title>
<g id="a_node5"><a xlink:href="classUnicode__CharacterEncodingModel_1_1CharacterEncodingScheme__Simple.html" target="_top" xlink:title="Base class for simple character encoding schemes. ">
<polygon fill="white" stroke="black" points="238,-0.5 238,-41.5 429,-41.5 429,-0.5 238,-0.5"/>
<text text-anchor="start" x="246" y="-29.5" font-family="Helvetica,sans-Serif" font-size="10.00">Unicode_CharacterEncoding</text>
<text text-anchor="start" x="246" y="-18.5" font-family="Helvetica,sans-Serif" font-size="10.00">Model::CharacterEncodingScheme</text>
<text text-anchor="middle" x="333.5" y="-7.5" font-family="Helvetica,sans-Serif" font-size="10.00">_Simple&lt; Derived, CodeUnitWidth &gt;</text>
</a>
</g>
</g>
<!-- Node1&#45;&gt;Node5 -->
<g id="edge4" class="edge"><title>Node1&#45;&gt;Node5</title>
<path fill="none" stroke="midnightblue" d="M184.294,-57.9744C205.984,-52.5632 228.959,-46.8315 250.178,-41.5378"/>
<polygon fill="midnightblue" stroke="midnightblue" points="183.285,-54.6187 174.43,-60.4353 184.98,-61.4106 183.285,-54.6187"/>
</g>
<!-- Node3 -->
<g id="node3" class="node"><title>Node3</title>
<g id="a_node3"><a xlink:href="classUnicode__CharacterEncodingModel_1_1CharacterEncodingScheme__Compound__ByteOrderMark.html" target="_top" xlink:title="Base class for compound character encoding schemes that employ a byte order mark as their switching m...">
<polygon fill="white" stroke="black" points="485,-115 485,-167 669,-167 669,-115 485,-115"/>
<text text-anchor="start" x="493" y="-155" font-family="Helvetica,sans-Serif" font-size="10.00">Unicode_CharacterEncoding</text>
<text text-anchor="start" x="493" y="-144" font-family="Helvetica,sans-Serif" font-size="10.00">Model::CharacterEncodingScheme</text>
<text text-anchor="start" x="493" y="-133" font-family="Helvetica,sans-Serif" font-size="10.00">_Compound_ByteOrderMark&lt; CEF,</text>
<text text-anchor="middle" x="577" y="-122" font-family="Helvetica,sans-Serif" font-size="10.00"> SCES_BE, SCES_LE &gt;</text>
</a>
</g>
</g>
<!-- Node2&#45;&gt;Node3 -->
<g id="edge2" class="edge"><title>Node2&#45;&gt;Node3</title>
<path fill="none" stroke="midnightblue" d="M442.298,-141C456.472,-141 470.887,-141 484.749,-141"/>
<polygon fill="midnightblue" stroke="midnightblue" points="442.031,-137.5 432.031,-141 442.031,-144.5 442.031,-137.5"/>
</g>
</g>
</svg>
