<?xml version="1.0" encoding="UTF-8" standalone="no"?>
<!DOCTYPE svg PUBLIC "-//W3C//DTD SVG 1.1//EN"
 "http://www.w3.org/Graphics/SVG/1.1/DTD/svg11.dtd">
<!-- Generated by graphviz version 2.38.0 (20140413.2041)
 -->
<!-- Title: Graphical Class Hierarchy Pages: 1 -->
<svg width="466pt" height="144pt"
 viewBox="0.00 0.00 466.00 143.50" xmlns="http://www.w3.org/2000/svg" xmlns:xlink="http://www.w3.org/1999/xlink">
<g id="graph0" class="graph" transform="scale(1 1) rotate(0) translate(4 139.5)">
<title>Graphical Class Hierarchy</title>
<polygon fill="white" stroke="none" points="-4,4 -4,-139.5 462,-139.5 462,4 -4,4"/>
<!-- Node1 -->
<g id="node1" class="node"><title>Node1</title>
<g id="a_node1"><a xlink:href="classUnicode__CharacterEncodingModel_1_1CharacterEncodingForm.html" target="_top" xlink:title="Base class for character encoding forms. ">
<polygon fill="white" stroke="black" points="0,-49.5 0,-90.5 200,-90.5 200,-49.5 0,-49.5"/>
<text text-anchor="start" x="8" y="-78.5" font-family="Helvetica,sans-Serif" font-size="10.00">Unicode_CharacterEncoding</text>
<text text-anchor="start" x="8" y="-67.5" font-family="Helvetica,sans-Serif" font-size="10.00">Model::CharacterEncodingForm</text>
<text text-anchor="middle" x="100" y="-56.5" font-family="Helvetica,sans-Serif" font-size="10.00">&lt; Derived, Min, Max, CodeUnitWidth &gt;</text>
</a>
</g>
</g>
<!-- Node2 -->
<g id="node2" class="node"><title>Node2</title>
<g id="a_node2"><a xlink:href="classUnicode__CharacterEncodingModel_1_1CharacterEncodingForm__FixedWidth.html" target="_top" xlink:title="Base class for fixed width character encoding forms. ">
<polygon fill="white" stroke="black" points="240,-83 240,-135 454,-135 454,-83 240,-83"/>
<text text-anchor="start" x="248" y="-123" font-family="Helvetica,sans-Serif" font-size="10.00">Unicode_CharacterEncoding</text>
<text text-anchor="start" x="248" y="-112" font-family="Helvetica,sans-Serif" font-size="10.00">Model::CharacterEncodingForm</text>
<text text-anchor="start" x="248" y="-101" font-family="Helvetica,sans-Serif" font-size="10.00">_FixedWidth&lt; Derived, Min,</text>
<text text-anchor="middle" x="347" y="-90" font-family="Helvetica,sans-Serif" font-size="10.00"> Max, CodeUnitWidth, SequenceLength &gt;</text>
</a>
</g>
</g>
<!-- Node1&#45;&gt;Node2 -->
<g id="edge1" class="edge"><title>Node1&#45;&gt;Node2</title>
<path fill="none" stroke="midnightblue" d="M210.413,-87.4168C220.169,-88.9698 230.037,-90.5406 239.765,-92.0892"/>
<polygon fill="midnightblue" stroke="midnightblue" points="210.724,-83.9222 200.298,-85.8066 209.623,-90.8352 210.724,-83.9222"/>
</g>
<!-- Node3 -->
<g id="node3" class="node"><title>Node3</title>
<g id="a_node3"><a xlink:href="classUnicode__CharacterEncodingModel_1_1CharacterEncodingForm__VariableWidth.html" target="_top" xlink:title="Base class for variable width character encoding forms. ">
<polygon fill="white" stroke="black" points="236,-0.5 236,-63.5 458,-63.5 458,-0.5 236,-0.5"/>
<text text-anchor="start" x="244" y="-51.5" font-family="Helvetica,sans-Serif" font-size="10.00">Unicode_CharacterEncoding</text>
<text text-anchor="start" x="244" y="-40.5" font-family="Helvetica,sans-Serif" font-size="10.00">Model::CharacterEncodingForm</text>
<text text-anchor="start" x="244" y="-29.5" font-family="Helvetica,sans-Serif" font-size="10.00">_VariableWidth&lt; Derived, Min,</text>
<text text-anchor="start" x="244" y="-18.5" font-family="Helvetica,sans-Serif" font-size="10.00"> Max, CodeUnitWidth, MinSequenceLength,</text>
<text text-anchor="middle" x="347" y="-7.5" font-family="Helvetica,sans-Serif" font-size="10.00"> MaxSequenceLength &gt;</text>
</a>
</g>
</g>
<!-- Node1&#45;&gt;Node3 -->
<g id="edge2" class="edge"><title>Node1&#45;&gt;Node3</title>
<path fill="none" stroke="midnightblue" d="M210.206,-53.062C218.688,-51.7463 227.256,-50.4174 235.746,-49.1007"/>
<polygon fill="midnightblue" stroke="midnightblue" points="209.643,-49.6073 200.298,-54.5987 210.716,-56.5246 209.643,-49.6073"/>
</g>
</g>
</svg>
